<mxfile host="app.diagrams.net" modified="2024-01-10T22:57:30.718Z" agent="Mozilla/5.0 (Windows NT 10.0; Win64; x64) AppleWebKit/537.36 (KHTML, like Gecko) Chrome/119.0.0.0 Safari/537.36 OPR/105.0.0.0" etag="MnHlXBFCDcFi038p1jkM" version="22.1.18" type="github">
  <diagram name="Página-1" id="qX6oCdqV5b_JTcVN6vs8">
    <mxGraphModel dx="933" dy="451" grid="1" gridSize="10" guides="1" tooltips="1" connect="1" arrows="1" fold="1" page="1" pageScale="1" pageWidth="827" pageHeight="1169" math="0" shadow="0">
      <root>
        <mxCell id="0" />
        <mxCell id="1" parent="0" />
        <mxCell id="zfV86jXihHt-5HADeHPY-1" value="Lista&lt;br&gt;itens&lt;br&gt;pá, banana" style="rounded=0;whiteSpace=wrap;html=1;" vertex="1" parent="1">
          <mxGeometry x="310" y="240" width="120" height="90" as="geometry" />
        </mxCell>
        <mxCell id="zfV86jXihHt-5HADeHPY-4" value="comprar" style="rounded=0;whiteSpace=wrap;html=1;" vertex="1" parent="1">
          <mxGeometry x="210" y="430" width="120" height="60" as="geometry" />
        </mxCell>
        <mxCell id="zfV86jXihHt-5HADeHPY-5" value="comprado" style="rounded=0;whiteSpace=wrap;html=1;" vertex="1" parent="1">
          <mxGeometry x="400" y="430" width="120" height="60" as="geometry" />
        </mxCell>
        <mxCell id="zfV86jXihHt-5HADeHPY-7" value="" style="endArrow=classic;html=1;rounded=0;exitX=0.5;exitY=1;exitDx=0;exitDy=0;entryX=0.5;entryY=0;entryDx=0;entryDy=0;" edge="1" parent="1" source="zfV86jXihHt-5HADeHPY-1" target="zfV86jXihHt-5HADeHPY-5">
          <mxGeometry width="50" height="50" relative="1" as="geometry">
            <mxPoint x="580" y="300" as="sourcePoint" />
            <mxPoint x="630" y="250" as="targetPoint" />
          </mxGeometry>
        </mxCell>
        <mxCell id="zfV86jXihHt-5HADeHPY-8" value="" style="endArrow=classic;html=1;rounded=0;exitX=0.5;exitY=1;exitDx=0;exitDy=0;entryX=0.5;entryY=0;entryDx=0;entryDy=0;" edge="1" parent="1" source="zfV86jXihHt-5HADeHPY-1" target="zfV86jXihHt-5HADeHPY-4">
          <mxGeometry width="50" height="50" relative="1" as="geometry">
            <mxPoint x="590" y="310" as="sourcePoint" />
            <mxPoint x="640" y="260" as="targetPoint" />
          </mxGeometry>
        </mxCell>
      </root>
    </mxGraphModel>
  </diagram>
</mxfile>
